#!OML:ASF G:\JayActor3\Patient Classification 1\Patient 1\Session 6\male.ASF
:FULLY-SPECIFIED
:DEGREES
1840
root 12.2583 16.4467 -11.7789 0.928405 -68.0526 -1.34774
lowerback 0.992746 -0.940698 5.42507
upperback 0.849077 -1.27785 3.325
thorax 0.276622 -0.646196 0.386691
lowerneck -3.35043 -6.59653 -3.56965
upperneck 28.6952 -11.6017 5.72177
head 10.2374 -5.50701 1.42321
rclavicle -1.78409e-014 2.22639e-014
rhumerus -22.07 10.2298 -87.4131
rradius 110.435
rwrist -53.9143
rhand -29.8471 -15.5912
rfingers 7.12502
rthumb -3.16984 -45.5473
lclavicle -1.78409e-014 2.22639e-014
lhumerus -58.027 32.1597 51.4127
lradius 27.0122
lwrist 41.5382
lhand -14.1576 11.1277
lfingers 7.12502
lthumb 11.9772 40.765
rfemur 0.649393 -1.70126 18.0786
rtibia 23.8663
rfoot -25.7456 -15.2091
rtoes 5.86263
lfemur -16.1801 21.4756 -6.54023
ltibia 45.378
lfoot -7.00791 10.1225
ltoes -10.0952
1841
root 12.2375 16.4526 -11.7473 1.10337 -68.2307 -1.36904
lowerback 1.18899 -0.920757 5.34029
upperback 0.901111 -1.23969 3.33915
thorax 0.223305 -0.628258 0.451015
lowerneck -3.28858 -6.57832 -3.59288
upperneck 28.8824 -11.6091 5.72624
head 10.298 -5.51351 1.42844
rclavicle 1.08338e-014 -2.22639e-014
rhumerus -22.009 10.1129 -87.3464
rradius 110.473
rwrist -54.0721
rhand -29.7577 -15.6033
rfingers 7.12502
rthumb -3.08342 -45.5608
lclavicle 1.08338e-014 -2.22639e-014
lhumerus -58.075 32.188 51.1871
lradius 26.9102
lwrist 41.4652
lhand -14.1334 11.1495
lfingers 7.12502
lthumb 12.0004 40.7855
rfemur 0.697618 -1.30943 18.0676
rtibia 23.627
rfoot -25.7865 -15.3709
rtoes 5.96769
lfemur -17.0361 21.1791 -6.91053
ltibia 44.6648
lfoot -7.56357 10.026
ltoes -10.1179
1842
root 12.2167 16.4571 -11.7141 1.26645 -68.443 -1.37025
lowerback 1.37732 -0.896986 5.22597
upperback 0.964022 -1.19841 3.35539
thorax 0.186197 -0.608497 0.533436
lowerneck -3.22263 -6.55603 -3.60885
upperneck 29.0543 -11.6083 5.72706
head 10.351 -5.51623 1.43247
rclavicle 2.20651e-014 -1.11319e-014
rhumerus -21.9272 9.99816 -87.2955
rradius 110.511
rwrist -54.2214
rhand -29.6684 -15.6327
rfingers 7.12502
rthumb -2.99718 -45.5914
lclavicle 2.20651e-014 -1.11319e-014
lhumerus -58.1443 32.2377 50.943
lradius 26.7919
lwrist 41.3826
lhand -14.1571 11.1762
lfingers 7.12502
lthumb 11.9776 40.8135
rfemur 0.724386 -0.882675 18.0477
rtibia 23.4249
rfoot -25.8711 -15.5116
rtoes 6.14407
lfemur -17.7828 20.7641 -7.28056
ltibia 43.6743
lfoot -8.12747 10.1052
ltoes -10.1318
1843
root 12.1957 16.4604 -11.6787 1.43763 -68.69 -1.37773
lowerback 1.55043 -0.869687 5.09924
upperback 1.04566 -1.15547 3.37368
thorax 0.177038 -0.587396 0.624268
lowerneck -3.15469 -6.53224 -3.61866
upperneck 29.2041 -11.6013 5.72307
head 10.3944 -5.51617 1.43485
rclavicle -9.34288e-015 1.59028e-014
rhumerus -21.8159 9.90412 -87.2545
rradius 110.555
rwrist -54.3737
rhand -29.5962 -15.6465
rfingers 7.12502
rthumb -2.92751 -45.6061
lclavicle -9.34288e-015 1.59028e-014
lhumerus -58.2252 32.3087 50.6917
lradius 26.6627
lwrist 41.3036
lhand -14.2314 11.2047
lfingers 7.12502
lthumb 11.906 40.8462
rfemur 0.740778 -0.454379 18.0171
rtibia 23.2414
rfoot -25.9633 -15.6245
rtoes 6.33262
lfemur -18.406 20.2197 -7.62242
ltibia 42.4278
lfoot -8.70646 10.2977
ltoes -10.1272
1844
root 12.1743 16.463 -11.6408 1.61546 -68.9694 -1.3962
lowerback 1.70909 -0.838003 4.96636
upperback 1.14765 -1.10967 3.39168
thorax 0.196898 -0.564376 0.717638
lowerneck -3.0865 -6.50741 -3.63063
upperneck 29.336 -11.5905 5.72193
head 10.4312 -5.51438 1.43923
rclavicle 8.74653e-015 1.43125e-014
rhumerus -21.6805 9.8232 -87.2213
rradius 110.611
rwrist -54.54
rhand -29.5393 -15.6459
rfingers 7.12502
rthumb -2.87255 -45.6063
lclavicle 8.74653e-015 1.43125e-014
lhumerus -58.3093 32.3852 50.4492
lradius 26.5279
lwrist 41.2484
lhand -14.3276 11.2282
lfingers 7.12502
lthumb 11.8132 40.875
rfemur 0.760467 -0.0425461 17.9722
rtibia 23.0628
rfoot -26.0473 -15.7045
rtoes 6.51332
lfemur -18.8927 19.5261 -7.91667
ltibia 40.9465
lfoot -9.29769 10.5429
ltoes -10.0696
1845
root 12.1525 16.4649 -11.6001 1.78244 -69.2791 -1.41327
lowerback 1.85586 -0.80272 4.82733
upperback 1.27121 -1.0618 3.40499
thorax 0.245442 -0.539889 0.809103
lowerneck -3.01756 -6.48394 -3.64337
upperneck 29.455 -11.5798 5.72133
head 10.4631 -5.51275 1.44412
rclavicle -1.04362e-014 1.11319e-014
rhumerus -21.5253 9.75697 -87.1949
rradius 110.683
rwrist -54.7309
rhand -29.4863 -15.6105
rfingers 7.12502
rthumb -2.82132 -45.5716
lclavicle -1.04362e-014 1.11319e-014
lhumerus -58.3957 32.4645 50.2154
lradius 26.3897
lwrist 41.2154
lhand -14.4478 11.2362
lfingers 7.12502
lthumb 11.6973 40.8896
rfemur 0.790615 0.335479 17.9029
rtibia 22.8856
rfoot -26.1143 -15.7413
rtoes 6.67594
lfemur -19.233 18.6705 -8.15415
ltibia 39.2488
lfoot -9.88458 10.8035
ltoes -10.0094
1846
root 12.1299 16.466 -11.5568 1.9283 -69.6172 -1.4245
lowerback 2.00082 -0.762864 4.67972
upperback 1.40191 -1.00883 3.41217
thorax 0.302192 -0.512914 0.898831
lowerneck -2.91003 -6.46267 -3.65849
upperneck 29.5643 -11.5718 5.7178
head 10.4842 -5.51472 1.44985
rclavicle -6.4605e-015 -1.11319e-014
rhumerus -21.3816 9.68733 -87.1743
rradius 110.773
rwrist -54.9553
rhand -29.4284 -15.5563
rfingers 7.12502
rthumb -2.76541 -45.5182
lclavicle -6.4605e-015 -1.11319e-014
lhumerus -58.5022 32.5111 49.9924
lradius 26.2509
lwrist 41.1967
lhand -14.5462 11.2411
lfingers 7.12502
lthumb 11.6024 40.8999
rfemur 0.835553 0.677752 17.807
rtibia 22.7105
rfoot -26.1583 -15.737
rtoes 6.80907
lfemur -19.4219 17.6448 -8.32496
ltibia 37.3563
lfoot -10.449 11.0613
ltoes -10.0089
1847
root 12.1065 16.4661 -11.511 2.07311 -69.9876 -1.44857
lowerback 2.14682 -0.715149 4.53382
upperback 1.53761 -0.945844 3.41032
thorax 0.363189 -0.481016 0.978067
lowerneck -2.77482 -6.44617 -3.66591
upperneck 29.6735 -11.5729 5.71153
head 10.4999 -5.52165 1.45354
rclavicle -5.76476e-015 -3.18055e-014
rhumerus -21.2484 9.60662 -87.1594
rradius 110.877
rwrist -55.2131
rhand -29.3634 -15.4836
rfingers 7.12502
rthumb -2.7027 -45.4463
lclavicle -5.76476e-015 -3.18055e-014
lhumerus -58.6271 32.5399 49.7587
lradius 26.1041
lwrist 41.1606
lhand -14.6027 11.2491
lfingers 7.12502
lthumb 11.5479 40.9109
rfemur 0.88498 0.994064 17.6926
rtibia 22.546
rfoot -26.1795 -15.6902
rtoes 6.92787
lfemur -19.4679 16.4574 -8.41719
ltibia 35.2922
lfoot -10.9698 11.3138
ltoes -10.1574
1848
root 12.0825 16.4648 -11.4628 2.274 -70.3947 -1.53951
lowerback 2.30005 -0.658823 4.40111
upperback 1.65821 -0.870106 3.40607
thorax 0.404271 -0.443253 1.04739
lowerneck -2.57698 -6.43148 -3.66514
upperneck 29.7868 -11.5808 5.69871
head 10.5046 -5.53436 1.45551
rclavicle 6.35117e-014 -1.27222e-014
rhumerus -21.157 9.51604 -87.1497
rradius 110.998
rwrist -55.5024
rhand -29.285 -15.4265
rfingers 7.12502
rthumb -2.62698 -45.3901
lclavicle 6.35117e-014 -1.27222e-014
lhumerus -58.8029 32.5402 49.4898
lradius 25.9447
lwrist 41.0889
lhand -14.6261 11.2576
lfingers 7.12502
lthumb 11.5254 40.9208
rfemur 0.925555 1.29341 17.5811
rtibia 22.3982
rfoot -26.1821 -15.5992
rtoes 7.03366
lfemur -19.3896 15.1225 -8.40952
ltibia 33.0854
lfoot -11.4348 11.5513
ltoes -10.468
1849
root 12.0576 16.4618 -11.4125 2.59967 -70.8486 -1.75778
lowerback 2.45497 -0.593315 4.29275
upperback 1.7581 -0.78091 3.4078
thorax 0.422747 -0.39927 1.10905
lowerneck -2.32638 -6.41412 -3.6558
upperneck 29.9135 -11.5884 5.67355
head 10.5031 -5.54985 1.45388
rclavicle 6.27166e-014 6.36111e-015
rhumerus -21.1058 9.43255 -87.1448
rradius 111.129
rwrist -55.8041
rhand -29.2003 -15.3953
rfingers 7.12502
rthumb -2.54515 -45.3599
lclavicle 6.27166e-014 6.36111e-015
lhumerus -59.0412 32.5248 49.1753
lradius 25.7743
lwrist 40.978
lhand -14.6436 11.2779
lfingers 7.12502
lthumb 11.5085 40.942
rfemur 0.937594 1.5823 17.4908
rtibia 22.2746
rfoot -26.1513 -15.4817
rtoes 7.0476
lfemur -19.2095 13.6764 -8.28581
ltibia 30.7654
lfoot -11.8348 11.7803
ltoes -10.9962
